<svg width="314" height="213" viewBox="0 0 314 213" fill="none" xmlns="http://www.w3.org/2000/svg">
<rect x="11" y="64" width="300" height="27" fill="#2A9DA5"/>
<rect x="11" y="54" width="300" height="5" fill="#7A7A7A"/>
<rect x="11" y="44" width="300" height="5" fill="#7A7A7A"/>
<rect x="11" y="34" width="300" height="5" fill="#7A7A7A"/>
<rect x="11" y="24" width="300" height="5" fill="#7A7A7A"/>
<rect x="11" y="116" width="300" height="64" fill="#7A7A7A"/>
<circle cx="27.5" cy="165.5" r="5.5" fill="#D9D9D9"/>
<circle cx="73.5" cy="148.5" r="5.5" fill="#D9D9D9"/>
<circle cx="113.5" cy="143.5" r="5.5" fill="#D9D9D9"/>
<circle cx="45.5" cy="142.5" r="5.5" fill="#D9D9D9"/>
<circle cx="166.5" cy="160.5" r="5.5" fill="#D9D9D9"/>
<circle cx="255.5" cy="165.5" r="5.5" fill="#D9D9D9"/>
<circle cx="234.5" cy="142.5" r="5.5" fill="#D9D9D9"/>
<circle cx="206.5" cy="132.5" r="5.5" fill="#D9D9D9"/>
<circle cx="177.5" cy="138.5" r="5.5" fill="#D9D9D9"/>
<circle cx="210.5" cy="166.5" r="5.5" fill="#D9D9D9"/>
<circle cx="260.5" cy="149.5" r="5.5" fill="#D9D9D9"/>
<circle cx="283.5" cy="133.5" r="5.5" fill="#D9D9D9"/>
<circle cx="126.5" cy="133.5" r="5.5" fill="#D9D9D9"/>
<circle cx="91.5" cy="131.5" r="5.5" fill="#D9D9D9"/>
<circle cx="27.5" cy="127.5" r="5.5" fill="#D9D9D9"/>
<circle cx="97.5" cy="167.5" r="5.5" fill="#D9D9D9"/>
<circle cx="137.5" cy="165.5" r="5.5" fill="#D9D9D9"/>
<circle cx="188.5" cy="165.5" r="5.5" fill="#D9D9D9"/>
<path d="M313 24V59" stroke="black"/>
<path d="M2.64773 56.1818V62H1.94318V56.9205H1.90909L0.488636 57.8636V57.1477L1.94318 56.1818H2.64773Z" fill="black"/>
<path d="M0.602273 51V50.4886L2.52273 48.3864C2.74811 48.1402 2.93371 47.9261 3.07955 47.7443C3.22538 47.5606 3.33333 47.3883 3.40341 47.2273C3.47538 47.0644 3.51136 46.8939 3.51136 46.7159C3.51136 46.5114 3.46212 46.3343 3.36364 46.1847C3.26705 46.035 3.13447 45.9195 2.96591 45.8381C2.79735 45.7566 2.60795 45.7159 2.39773 45.7159C2.17424 45.7159 1.97917 45.7623 1.8125 45.8551C1.64773 45.946 1.51989 46.0739 1.42898 46.2386C1.33996 46.4034 1.29545 46.5966 1.29545 46.8182H0.625C0.625 46.4773 0.703598 46.178 0.860795 45.9205C1.01799 45.6629 1.23201 45.4621 1.50284 45.3182C1.77557 45.1742 2.08144 45.1023 2.42045 45.1023C2.76136 45.1023 3.06345 45.1742 3.3267 45.3182C3.58996 45.4621 3.7964 45.6562 3.94602 45.9006C4.09564 46.1449 4.17045 46.4167 4.17045 46.7159C4.17045 46.9299 4.13163 47.1392 4.05398 47.3438C3.97822 47.5464 3.84564 47.7727 3.65625 48.0227C3.46875 48.2708 3.20833 48.5739 2.875 48.9318L1.56818 50.3295V50.375H4.27273V51H0.602273Z" fill="black"/>
<path d="M1.10227 40.0455C0.962121 40.0455 0.841856 39.9953 0.741477 39.8949C0.641099 39.7945 0.590909 39.6742 0.590909 39.5341C0.590909 39.3939 0.641099 39.2737 0.741477 39.1733C0.841856 39.0729 0.962121 39.0227 1.10227 39.0227C1.24242 39.0227 1.36269 39.0729 1.46307 39.1733C1.56345 39.2737 1.61364 39.3939 1.61364 39.5341C1.61364 39.6269 1.58996 39.7121 1.54261 39.7898C1.49716 39.8674 1.43561 39.9299 1.35795 39.9773C1.2822 40.0227 1.19697 40.0455 1.10227 40.0455ZM3.3054 40.0455C3.16525 40.0455 3.04498 39.9953 2.9446 39.8949C2.84422 39.7945 2.79403 39.6742 2.79403 39.5341C2.79403 39.3939 2.84422 39.2737 2.9446 39.1733C3.04498 39.0729 3.16525 39.0227 3.3054 39.0227C3.44555 39.0227 3.56581 39.0729 3.66619 39.1733C3.76657 39.2737 3.81676 39.3939 3.81676 39.5341C3.81676 39.6269 3.79309 39.7121 3.74574 39.7898C3.70028 39.8674 3.63873 39.9299 3.56108 39.9773C3.48532 40.0227 3.40009 40.0455 3.3054 40.0455ZM5.50852 40.0455C5.36837 40.0455 5.24811 39.9953 5.14773 39.8949C5.04735 39.7945 4.99716 39.6742 4.99716 39.5341C4.99716 39.3939 5.04735 39.2737 5.14773 39.1733C5.24811 39.0729 5.36837 39.0227 5.50852 39.0227C5.64867 39.0227 5.76894 39.0729 5.86932 39.1733C5.9697 39.2737 6.01989 39.3939 6.01989 39.5341C6.01989 39.6269 5.99621 39.7121 5.94886 39.7898C5.90341 39.8674 5.84186 39.9299 5.7642 39.9773C5.68845 40.0227 5.60322 40.0455 5.50852 40.0455Z" fill="black"/>
<path d="M1.28409 26.375V29H0.613636V24.6364H1.26136V25.3182H1.31818C1.42045 25.0966 1.57576 24.9186 1.78409 24.7841C1.99242 24.6477 2.26136 24.5795 2.59091 24.5795C2.88636 24.5795 3.14489 24.6402 3.36648 24.7614C3.58807 24.8807 3.76042 25.0625 3.88352 25.3068C4.00663 25.5492 4.06818 25.8561 4.06818 26.2273V29H3.39773V26.2727C3.39773 25.9299 3.30871 25.6629 3.13068 25.4716C2.95265 25.2784 2.70833 25.1818 2.39773 25.1818C2.18371 25.1818 1.99242 25.2282 1.82386 25.321C1.6572 25.4138 1.52557 25.5492 1.42898 25.7273C1.33239 25.9053 1.28409 26.1212 1.28409 26.375Z" fill="black"/>
<path d="M255.903 210V209.233L258.784 206.08C259.122 205.71 259.401 205.389 259.619 205.116C259.838 204.841 260 204.582 260.105 204.341C260.213 204.097 260.267 203.841 260.267 203.574C260.267 203.267 260.193 203.001 260.045 202.777C259.901 202.553 259.702 202.379 259.449 202.257C259.196 202.135 258.912 202.074 258.597 202.074C258.261 202.074 257.969 202.143 257.719 202.283C257.472 202.419 257.28 202.611 257.143 202.858C257.01 203.105 256.943 203.395 256.943 203.727H255.938C255.938 203.216 256.055 202.767 256.291 202.381C256.527 201.994 256.848 201.693 257.254 201.477C257.663 201.261 258.122 201.153 258.631 201.153C259.142 201.153 259.595 201.261 259.99 201.477C260.385 201.693 260.695 201.984 260.919 202.351C261.143 202.717 261.256 203.125 261.256 203.574C261.256 203.895 261.197 204.209 261.081 204.516C260.967 204.82 260.768 205.159 260.484 205.534C260.203 205.906 259.812 206.361 259.312 206.898L257.352 208.994V209.062H261.409V210H255.903ZM265.896 210.119C265.396 210.119 264.946 210.02 264.545 209.821C264.145 209.622 263.824 209.349 263.582 209.003C263.341 208.656 263.209 208.261 263.186 207.818H264.209C264.249 208.213 264.428 208.54 264.746 208.798C265.067 209.054 265.45 209.182 265.896 209.182C266.254 209.182 266.572 209.098 266.851 208.93C267.132 208.763 267.352 208.533 267.511 208.24C267.673 207.945 267.754 207.611 267.754 207.239C267.754 206.858 267.67 206.518 267.503 206.22C267.338 205.919 267.111 205.682 266.821 205.509C266.531 205.335 266.2 205.247 265.828 205.244C265.561 205.241 265.287 205.283 265.006 205.368C264.724 205.45 264.493 205.557 264.311 205.688L263.322 205.568L263.851 201.273H268.385V202.21H264.737L264.43 204.784H264.482C264.661 204.642 264.885 204.524 265.155 204.43C265.425 204.337 265.706 204.29 265.999 204.29C266.533 204.29 267.009 204.418 267.426 204.673C267.847 204.926 268.176 205.273 268.415 205.713C268.656 206.153 268.777 206.656 268.777 207.222C268.777 207.778 268.652 208.276 268.402 208.713C268.155 209.148 267.814 209.491 267.379 209.744C266.945 209.994 266.45 210.119 265.896 210.119ZM274.919 208.364V207.903C274.919 207.585 274.984 207.294 275.115 207.03C275.248 206.763 275.441 206.55 275.694 206.391C275.95 206.229 276.26 206.148 276.623 206.148C276.993 206.148 277.302 206.229 277.552 206.391C277.802 206.55 277.991 206.763 278.119 207.03C278.247 207.294 278.311 207.585 278.311 207.903V208.364C278.311 208.682 278.245 208.974 278.115 209.241C277.987 209.506 277.797 209.719 277.544 209.881C277.294 210.04 276.987 210.119 276.623 210.119C276.254 210.119 275.943 210.04 275.69 209.881C275.437 209.719 275.245 209.506 275.115 209.241C274.984 208.974 274.919 208.682 274.919 208.364ZM275.788 207.903V208.364C275.788 208.628 275.85 208.865 275.975 209.075C276.1 209.283 276.316 209.386 276.623 209.386C276.922 209.386 277.132 209.283 277.254 209.075C277.379 208.865 277.441 208.628 277.441 208.364V207.903C277.441 207.639 277.382 207.403 277.262 207.196C277.143 206.986 276.93 206.881 276.623 206.881C276.325 206.881 276.11 206.986 275.98 207.196C275.852 207.403 275.788 207.639 275.788 207.903ZM270.572 203.369V202.909C270.572 202.591 270.637 202.3 270.768 202.036C270.902 201.768 271.095 201.555 271.348 201.396C271.603 201.234 271.913 201.153 272.277 201.153C272.646 201.153 272.956 201.234 273.206 201.396C273.456 201.555 273.645 201.768 273.772 202.036C273.9 202.3 273.964 202.591 273.964 202.909V203.369C273.964 203.687 273.899 203.98 273.768 204.247C273.64 204.511 273.45 204.724 273.197 204.886C272.947 205.045 272.64 205.125 272.277 205.125C271.907 205.125 271.596 205.045 271.343 204.886C271.091 204.724 270.899 204.511 270.768 204.247C270.637 203.98 270.572 203.687 270.572 203.369ZM271.441 202.909V203.369C271.441 203.634 271.504 203.871 271.629 204.081C271.754 204.288 271.97 204.392 272.277 204.392C272.575 204.392 272.785 204.288 272.907 204.081C273.032 203.871 273.095 203.634 273.095 203.369V202.909C273.095 202.645 273.035 202.409 272.916 202.202C272.797 201.991 272.583 201.886 272.277 201.886C271.978 201.886 271.764 201.991 271.633 202.202C271.505 202.409 271.441 202.645 271.441 202.909ZM270.896 210L276.896 201.273H277.868L271.868 210H270.896ZM286.271 210.136C285.68 210.136 285.162 209.996 284.716 209.714C284.272 209.433 283.926 209.04 283.676 208.534C283.429 208.028 283.305 207.437 283.305 206.761C283.305 206.08 283.429 205.484 283.676 204.976C283.926 204.467 284.272 204.072 284.716 203.791C285.162 203.51 285.68 203.369 286.271 203.369C286.862 203.369 287.379 203.51 287.822 203.791C288.268 204.072 288.615 204.467 288.862 204.976C289.112 205.484 289.237 206.08 289.237 206.761C289.237 207.437 289.112 208.028 288.862 208.534C288.615 209.04 288.268 209.433 287.822 209.714C287.379 209.996 286.862 210.136 286.271 210.136ZM286.271 209.233C286.72 209.233 287.089 209.118 287.379 208.888C287.669 208.658 287.883 208.355 288.022 207.98C288.162 207.605 288.231 207.199 288.231 206.761C288.231 206.324 288.162 205.916 288.022 205.538C287.883 205.161 287.669 204.855 287.379 204.622C287.089 204.389 286.72 204.273 286.271 204.273C285.822 204.273 285.453 204.389 285.163 204.622C284.873 204.855 284.659 205.161 284.52 205.538C284.38 205.916 284.311 206.324 284.311 206.761C284.311 207.199 284.38 207.605 284.52 207.98C284.659 208.355 284.873 208.658 285.163 208.888C285.453 209.118 285.822 209.233 286.271 209.233ZM293.687 203.455V204.307H290.158V203.455H293.687ZM291.215 210V202.551C291.215 202.176 291.303 201.864 291.479 201.614C291.656 201.364 291.884 201.176 292.165 201.051C292.447 200.926 292.744 200.864 293.056 200.864C293.303 200.864 293.505 200.884 293.661 200.923C293.817 200.963 293.934 201 294.011 201.034L293.721 201.903C293.67 201.886 293.599 201.865 293.508 201.839C293.42 201.814 293.303 201.801 293.158 201.801C292.826 201.801 292.586 201.885 292.438 202.053C292.293 202.22 292.221 202.466 292.221 202.79V210H291.215ZM303.38 203.455C303.329 203.023 303.122 202.688 302.758 202.449C302.395 202.21 301.949 202.091 301.42 202.091C301.034 202.091 300.696 202.153 300.406 202.278C300.119 202.403 299.895 202.575 299.733 202.794C299.574 203.013 299.494 203.261 299.494 203.54C299.494 203.773 299.549 203.973 299.66 204.141C299.774 204.305 299.919 204.443 300.095 204.554C300.271 204.662 300.456 204.751 300.649 204.822C300.842 204.891 301.02 204.946 301.181 204.989L302.068 205.227C302.295 205.287 302.548 205.369 302.826 205.474C303.108 205.58 303.376 205.723 303.632 205.905C303.89 206.084 304.103 206.314 304.271 206.595C304.439 206.876 304.522 207.222 304.522 207.631C304.522 208.102 304.399 208.528 304.152 208.909C303.907 209.29 303.549 209.592 303.078 209.817C302.609 210.041 302.039 210.153 301.369 210.153C300.744 210.153 300.203 210.053 299.745 209.851C299.291 209.649 298.933 209.368 298.672 209.007C298.413 208.646 298.267 208.227 298.233 207.75H299.324C299.352 208.08 299.463 208.352 299.656 208.568C299.852 208.781 300.099 208.94 300.397 209.045C300.699 209.148 301.022 209.199 301.369 209.199C301.772 209.199 302.135 209.134 302.456 209.003C302.777 208.869 303.031 208.685 303.218 208.449C303.406 208.21 303.5 207.932 303.5 207.614C303.5 207.324 303.419 207.088 303.257 206.906C303.095 206.724 302.882 206.577 302.618 206.463C302.353 206.349 302.068 206.25 301.761 206.165L300.687 205.858C300.005 205.662 299.466 205.382 299.068 205.018C298.67 204.655 298.471 204.179 298.471 203.591C298.471 203.102 298.603 202.676 298.868 202.312C299.135 201.946 299.493 201.662 299.941 201.46C300.393 201.256 300.897 201.153 301.454 201.153C302.017 201.153 302.517 201.254 302.954 201.456C303.392 201.655 303.738 201.928 303.994 202.274C304.252 202.621 304.389 203.014 304.403 203.455H303.38Z" fill="black"/>
<path d="M294.83 161.455C294.778 161.023 294.571 160.688 294.207 160.449C293.844 160.21 293.398 160.091 292.869 160.091C292.483 160.091 292.145 160.153 291.855 160.278C291.568 160.403 291.344 160.575 291.182 160.794C291.023 161.013 290.943 161.261 290.943 161.54C290.943 161.773 290.999 161.973 291.109 162.141C291.223 162.305 291.368 162.443 291.544 162.554C291.72 162.662 291.905 162.751 292.098 162.822C292.291 162.891 292.469 162.946 292.631 162.989L293.517 163.227C293.744 163.287 293.997 163.369 294.276 163.474C294.557 163.58 294.825 163.723 295.081 163.905C295.339 164.084 295.553 164.314 295.72 164.595C295.888 164.876 295.972 165.222 295.972 165.631C295.972 166.102 295.848 166.528 295.601 166.909C295.357 167.29 294.999 167.592 294.527 167.817C294.058 168.041 293.489 168.153 292.818 168.153C292.193 168.153 291.652 168.053 291.195 167.851C290.74 167.649 290.382 167.368 290.121 167.007C289.862 166.646 289.716 166.227 289.682 165.75H290.773C290.801 166.08 290.912 166.352 291.105 166.568C291.301 166.781 291.548 166.94 291.847 167.045C292.148 167.148 292.472 167.199 292.818 167.199C293.222 167.199 293.584 167.134 293.905 167.003C294.226 166.869 294.48 166.685 294.668 166.449C294.855 166.21 294.949 165.932 294.949 165.614C294.949 165.324 294.868 165.088 294.706 164.906C294.544 164.724 294.331 164.577 294.067 164.463C293.803 164.349 293.517 164.25 293.21 164.165L292.136 163.858C291.455 163.662 290.915 163.382 290.517 163.018C290.119 162.655 289.92 162.179 289.92 161.591C289.92 161.102 290.053 160.676 290.317 160.312C290.584 159.946 290.942 159.662 291.391 159.46C291.842 159.256 292.347 159.153 292.903 159.153C293.466 159.153 293.966 159.254 294.403 159.456C294.841 159.655 295.188 159.928 295.443 160.274C295.702 160.621 295.838 161.014 295.852 161.455H294.83Z" fill="black"/>
<path d="M256 166L272 192.5" stroke="black"/>
<path d="M56 26C56 26 53 32.5 56 36.5C59 40.5 53.5 44 56 47C58.5 50 54.5 52 56 56.5C57.5 61 37 19 37 19" stroke="black"/>
<path d="M20.1136 3.27273V12H19.0568V3.27273H20.1136ZM23.1019 8.0625V12H22.0962V5.45455H23.0678V6.47727H23.1531C23.3065 6.14489 23.5394 5.87784 23.8519 5.67614C24.1644 5.47159 24.5678 5.36932 25.0621 5.36932C25.5053 5.36932 25.8931 5.46023 26.2255 5.64205C26.5579 5.82102 26.8164 6.09375 27.0011 6.46023C27.1857 6.82386 27.2781 7.28409 27.2781 7.84091V12H26.2724V7.90909C26.2724 7.39489 26.1388 6.99432 25.8718 6.70739C25.6048 6.41761 25.2383 6.27273 24.7724 6.27273C24.4513 6.27273 24.1644 6.34233 23.9116 6.48153C23.6616 6.62074 23.4641 6.82386 23.3192 7.09091C23.1744 7.35795 23.1019 7.68182 23.1019 8.0625ZM31.5874 12.1364C31.0419 12.1364 30.5604 11.9986 30.1428 11.723C29.7251 11.4446 29.3984 11.0526 29.1626 10.5469C28.9268 10.0384 28.8089 9.4375 28.8089 8.74432C28.8089 8.05682 28.9268 7.46023 29.1626 6.95455C29.3984 6.44886 29.7266 6.05824 30.147 5.78267C30.5675 5.5071 31.0533 5.36932 31.6044 5.36932C32.0305 5.36932 32.3672 5.44034 32.6143 5.58239C32.8643 5.72159 33.0547 5.88068 33.1854 6.05966C33.3189 6.2358 33.4226 6.38068 33.4964 6.49432H33.5817V3.27273H34.5874V12H33.6158V10.9943H33.4964C33.4226 11.1136 33.3175 11.2642 33.1811 11.446C33.0447 11.625 32.8501 11.7855 32.5973 11.9276C32.3445 12.0668 32.0078 12.1364 31.5874 12.1364ZM31.7237 11.233C32.1271 11.233 32.468 11.1278 32.7464 10.9176C33.0249 10.7045 33.2365 10.4105 33.3814 10.0355C33.5263 9.65767 33.5987 9.22159 33.5987 8.72727C33.5987 8.23864 33.5277 7.81108 33.3857 7.4446C33.2436 7.07528 33.0334 6.78835 32.755 6.58381C32.4766 6.37642 32.1328 6.27273 31.7237 6.27273C31.2976 6.27273 30.9425 6.3821 30.6584 6.60085C30.3771 6.81676 30.1655 7.1108 30.0234 7.48295C29.8842 7.85227 29.8146 8.26705 29.8146 8.72727C29.8146 9.19318 29.8857 9.61648 30.0277 9.99716C30.1726 10.375 30.3857 10.6761 30.6669 10.9006C30.951 11.1222 31.3033 11.233 31.7237 11.233ZM39.3132 12.1364C38.6825 12.1364 38.1385 11.9972 37.6811 11.7188C37.2266 11.4375 36.8757 11.0455 36.6286 10.5426C36.3842 10.0369 36.2621 9.44886 36.2621 8.77841C36.2621 8.10795 36.3842 7.51705 36.6286 7.00568C36.8757 6.49148 37.2195 6.09091 37.6598 5.80398C38.103 5.5142 38.62 5.36932 39.2109 5.36932C39.5518 5.36932 39.8885 5.42614 40.2209 5.53977C40.5533 5.65341 40.8558 5.83807 41.1286 6.09375C41.4013 6.34659 41.6186 6.68182 41.7805 7.09943C41.9425 7.51705 42.0234 8.03125 42.0234 8.64205V9.06818H36.978V8.19886H41.0007C41.0007 7.82955 40.9268 7.5 40.7791 7.21023C40.6342 6.92045 40.4268 6.69176 40.157 6.52415C39.8899 6.35653 39.5746 6.27273 39.2109 6.27273C38.8104 6.27273 38.4638 6.37216 38.1712 6.57102C37.8814 6.76705 37.6584 7.02273 37.5021 7.33807C37.3459 7.65341 37.2678 7.99148 37.2678 8.35227V8.93182C37.2678 9.42614 37.353 9.84517 37.5234 10.1889C37.6967 10.5298 37.9368 10.7898 38.2436 10.9688C38.5504 11.1449 38.907 11.233 39.3132 11.233C39.5774 11.233 39.8161 11.196 40.0291 11.1222C40.245 11.0455 40.4311 10.9318 40.5874 10.7812C40.7436 10.6278 40.8643 10.4375 40.9496 10.2102L41.9212 10.483C41.8189 10.8125 41.647 11.1023 41.4055 11.3523C41.1641 11.5994 40.8658 11.7926 40.5107 11.9318C40.1555 12.0682 39.7564 12.1364 39.3132 12.1364ZM43.5533 14.4545V5.45455H44.5249V6.49432H44.6442C44.718 6.38068 44.8203 6.2358 44.951 6.05966C45.0845 5.88068 45.2749 5.72159 45.522 5.58239C45.772 5.44034 46.1101 5.36932 46.5362 5.36932C47.0874 5.36932 47.5732 5.5071 47.9936 5.78267C48.4141 6.05824 48.7422 6.44886 48.978 6.95455C49.2138 7.46023 49.3317 8.05682 49.3317 8.74432C49.3317 9.4375 49.2138 10.0384 48.978 10.5469C48.7422 11.0526 48.4155 11.4446 47.9979 11.723C47.5803 11.9986 47.0987 12.1364 46.5533 12.1364C46.1328 12.1364 45.7962 12.0668 45.5433 11.9276C45.2905 11.7855 45.0959 11.625 44.9595 11.446C44.8232 11.2642 44.718 11.1136 44.6442 10.9943H44.5589V14.4545H43.5533ZM44.5419 8.72727C44.5419 9.22159 44.6143 9.65767 44.7592 10.0355C44.9041 10.4105 45.1158 10.7045 45.3942 10.9176C45.6726 11.1278 46.0135 11.233 46.4169 11.233C46.8374 11.233 47.1882 11.1222 47.4695 10.9006C47.7536 10.6761 47.9666 10.375 48.1087 9.99716C48.2536 9.61648 48.326 9.19318 48.326 8.72727C48.326 8.26705 48.255 7.85227 48.1129 7.48295C47.9737 7.1108 47.7621 6.81676 47.478 6.60085C47.1967 6.3821 46.843 6.27273 46.4169 6.27273C46.0078 6.27273 45.6641 6.37642 45.3857 6.58381C45.1072 6.78835 44.897 7.07528 44.755 7.4446C44.6129 7.81108 44.5419 8.23864 44.5419 8.72727ZM53.6101 12.1364C52.9794 12.1364 52.4354 11.9972 51.978 11.7188C51.5234 11.4375 51.1726 11.0455 50.9254 10.5426C50.6811 10.0369 50.5589 9.44886 50.5589 8.77841C50.5589 8.10795 50.6811 7.51705 50.9254 7.00568C51.1726 6.49148 51.5163 6.09091 51.9567 5.80398C52.3999 5.5142 52.9169 5.36932 53.5078 5.36932C53.8487 5.36932 54.1854 5.42614 54.5178 5.53977C54.8501 5.65341 55.1527 5.83807 55.4254 6.09375C55.6982 6.34659 55.9155 6.68182 56.0774 7.09943C56.2393 7.51705 56.3203 8.03125 56.3203 8.64205V9.06818H51.2749V8.19886H55.2976C55.2976 7.82955 55.2237 7.5 55.076 7.21023C54.9311 6.92045 54.7237 6.69176 54.4538 6.52415C54.1868 6.35653 53.8714 6.27273 53.5078 6.27273C53.1072 6.27273 52.7607 6.37216 52.468 6.57102C52.1783 6.76705 51.9553 7.02273 51.799 7.33807C51.6428 7.65341 51.5646 7.99148 51.5646 8.35227V8.93182C51.5646 9.42614 51.6499 9.84517 51.8203 10.1889C51.9936 10.5298 52.2337 10.7898 52.5405 10.9688C52.8473 11.1449 53.2038 11.233 53.6101 11.233C53.8743 11.233 54.1129 11.196 54.326 11.1222C54.5419 11.0455 54.728 10.9318 54.8842 10.7812C55.0405 10.6278 55.1612 10.4375 55.2464 10.2102L56.218 10.483C56.1158 10.8125 55.9439 11.1023 55.7024 11.3523C55.4609 11.5994 55.1626 11.7926 54.8075 11.9318C54.4524 12.0682 54.0533 12.1364 53.6101 12.1364ZM58.8558 8.0625V12H57.8501V5.45455H58.8217V6.47727H58.907C59.0604 6.14489 59.2933 5.87784 59.6058 5.67614C59.9183 5.47159 60.3217 5.36932 60.8161 5.36932C61.2592 5.36932 61.647 5.46023 61.9794 5.64205C62.3118 5.82102 62.5703 6.09375 62.755 6.46023C62.9396 6.82386 63.032 7.28409 63.032 7.84091V12H62.0263V7.90909C62.0263 7.39489 61.8928 6.99432 61.6257 6.70739C61.3587 6.41761 60.9922 6.27273 60.5263 6.27273C60.2053 6.27273 59.9183 6.34233 59.6655 6.48153C59.4155 6.62074 59.218 6.82386 59.0732 7.09091C58.9283 7.35795 58.8558 7.68182 58.8558 8.0625ZM67.3413 12.1364C66.7958 12.1364 66.3143 11.9986 65.8967 11.723C65.479 11.4446 65.1523 11.0526 64.9165 10.5469C64.6808 10.0384 64.5629 9.4375 64.5629 8.74432C64.5629 8.05682 64.6808 7.46023 64.9165 6.95455C65.1523 6.44886 65.4805 6.05824 65.9009 5.78267C66.3214 5.5071 66.8072 5.36932 67.3583 5.36932C67.7844 5.36932 68.1211 5.44034 68.3683 5.58239C68.6183 5.72159 68.8086 5.88068 68.9393 6.05966C69.0728 6.2358 69.1765 6.38068 69.2504 6.49432H69.3356V3.27273H70.3413V12H69.3697V10.9943H69.2504C69.1765 11.1136 69.0714 11.2642 68.935 11.446C68.7987 11.625 68.604 11.7855 68.3512 11.9276C68.0984 12.0668 67.7617 12.1364 67.3413 12.1364ZM67.4776 11.233C67.881 11.233 68.2219 11.1278 68.5004 10.9176C68.7788 10.7045 68.9904 10.4105 69.1353 10.0355C69.2802 9.65767 69.3526 9.22159 69.3526 8.72727C69.3526 8.23864 69.2816 7.81108 69.1396 7.4446C68.9975 7.07528 68.7873 6.78835 68.5089 6.58381C68.2305 6.37642 67.8867 6.27273 67.4776 6.27273C67.0515 6.27273 66.6964 6.3821 66.4123 6.60085C66.131 6.81676 65.9194 7.1108 65.7773 7.48295C65.6381 7.85227 65.5685 8.26705 65.5685 8.72727C65.5685 9.19318 65.6396 9.61648 65.7816 9.99716C65.9265 10.375 66.1396 10.6761 66.4208 10.9006C66.7049 11.1222 67.0572 11.233 67.4776 11.233ZM74.2489 12.1534C73.8342 12.1534 73.4577 12.0753 73.1197 11.919C72.7816 11.7599 72.5131 11.5312 72.3143 11.233C72.1154 10.9318 72.016 10.5682 72.016 10.142C72.016 9.76705 72.0898 9.46307 72.2376 9.23011C72.3853 8.99432 72.5827 8.80966 72.8299 8.67614C73.0771 8.54261 73.3498 8.44318 73.6481 8.37784C73.9492 8.30966 74.2518 8.25568 74.5558 8.21591C74.9535 8.16477 75.2759 8.12642 75.5231 8.10085C75.7731 8.07244 75.9549 8.02557 76.0685 7.96023C76.185 7.89489 76.2433 7.78125 76.2433 7.61932V7.58523C76.2433 7.16477 76.1282 6.83807 75.8981 6.60511C75.6708 6.37216 75.3256 6.25568 74.8626 6.25568C74.3825 6.25568 74.006 6.3608 73.7333 6.57102C73.4606 6.78125 73.2688 7.00568 73.158 7.24432L72.2035 6.90341C72.3739 6.50568 72.6012 6.19602 72.8853 5.97443C73.1722 5.75 73.4847 5.59375 73.8228 5.50568C74.1637 5.41477 74.4989 5.36932 74.8285 5.36932C75.0387 5.36932 75.2802 5.39489 75.5529 5.44602C75.8285 5.49432 76.0941 5.59517 76.3498 5.74858C76.6083 5.90199 76.8228 6.13352 76.9933 6.44318C77.1637 6.75284 77.2489 7.16761 77.2489 7.6875V12H76.2433V11.1136H76.1921C76.1239 11.2557 76.0103 11.4077 75.8512 11.5696C75.6921 11.7315 75.4805 11.8693 75.2163 11.983C74.9521 12.0966 74.6296 12.1534 74.2489 12.1534ZM74.4023 11.25C74.8001 11.25 75.1353 11.1719 75.408 11.0156C75.6836 10.8594 75.891 10.6577 76.0302 10.4105C76.1722 10.1634 76.2433 9.90341 76.2433 9.63068V8.71023C76.2006 8.76136 76.1069 8.80824 75.962 8.85085C75.82 8.89062 75.6552 8.92614 75.4677 8.95739C75.283 8.9858 75.1026 9.01136 74.9265 9.03409C74.7532 9.05398 74.6126 9.07102 74.5046 9.08523C74.2433 9.11932 73.9989 9.17472 73.7717 9.25142C73.5472 9.32528 73.3654 9.4375 73.2262 9.58807C73.0898 9.7358 73.0217 9.9375 73.0217 10.1932C73.0217 10.5426 73.1509 10.8068 73.4094 10.9858C73.6708 11.1619 74.0018 11.25 74.4023 11.25ZM80.0902 8.0625V12H79.0845V5.45455H80.0561V6.47727H80.1413C80.2947 6.14489 80.5277 5.87784 80.8402 5.67614C81.1527 5.47159 81.5561 5.36932 82.0504 5.36932C82.4936 5.36932 82.8814 5.46023 83.2138 5.64205C83.5462 5.82102 83.8047 6.09375 83.9893 6.46023C84.174 6.82386 84.2663 7.28409 84.2663 7.84091V12H83.2607V7.90909C83.2607 7.39489 83.1271 6.99432 82.8601 6.70739C82.593 6.41761 82.2266 6.27273 81.7607 6.27273C81.4396 6.27273 81.1527 6.34233 80.8999 6.48153C80.6499 6.62074 80.4524 6.82386 80.3075 7.09091C80.1626 7.35795 80.0902 7.68182 80.0902 8.0625ZM88.9506 5.45455V6.30682H85.5586V5.45455H88.9506ZM86.5472 3.88636H87.5529V10.125C87.5529 10.4091 87.5941 10.6222 87.6765 10.7642C87.7617 10.9034 87.8697 10.9972 88.0004 11.0455C88.1339 11.0909 88.2745 11.1136 88.4222 11.1136C88.533 11.1136 88.6239 11.108 88.695 11.0966C88.766 11.0824 88.8228 11.071 88.8654 11.0625L89.07 11.9659C89.0018 11.9915 88.9066 12.017 88.7844 12.0426C88.6623 12.071 88.5075 12.0852 88.32 12.0852C88.0359 12.0852 87.7575 12.0241 87.4847 11.902C87.2148 11.7798 86.9904 11.5938 86.8114 11.3438C86.6353 11.0938 86.5472 10.7784 86.5472 10.3977V3.88636ZM93.8384 14.4545V5.45455H94.81V6.49432H94.9293C95.0032 6.38068 95.1055 6.2358 95.2362 6.05966C95.3697 5.88068 95.56 5.72159 95.8072 5.58239C96.0572 5.44034 96.3952 5.36932 96.8214 5.36932C97.3725 5.36932 97.8583 5.5071 98.2788 5.78267C98.6992 6.05824 99.0273 6.44886 99.2631 6.95455C99.4989 7.46023 99.6168 8.05682 99.6168 8.74432C99.6168 9.4375 99.4989 10.0384 99.2631 10.5469C99.0273 11.0526 98.7006 11.4446 98.283 11.723C97.8654 11.9986 97.3839 12.1364 96.8384 12.1364C96.418 12.1364 96.0813 12.0668 95.8285 11.9276C95.5756 11.7855 95.381 11.625 95.2447 11.446C95.1083 11.2642 95.0032 11.1136 94.9293 10.9943H94.8441V14.4545H93.8384ZM94.8271 8.72727C94.8271 9.22159 94.8995 9.65767 95.0444 10.0355C95.1893 10.4105 95.4009 10.7045 95.6793 10.9176C95.9577 11.1278 96.2987 11.233 96.7021 11.233C97.1225 11.233 97.4734 11.1222 97.7546 10.9006C98.0387 10.6761 98.2518 10.375 98.3938 9.99716C98.5387 9.61648 98.6112 9.19318 98.6112 8.72727C98.6112 8.26705 98.5401 7.85227 98.3981 7.48295C98.2589 7.1108 98.0472 6.81676 97.7631 6.60085C97.4819 6.3821 97.1282 6.27273 96.7021 6.27273C96.293 6.27273 95.9492 6.37642 95.6708 6.58381C95.3924 6.78835 95.1822 7.07528 95.0401 7.4446C94.8981 7.81108 94.8271 8.23864 94.8271 8.72727ZM103.895 12.1364C103.265 12.1364 102.721 11.9972 102.263 11.7188C101.809 11.4375 101.458 11.0455 101.211 10.5426C100.966 10.0369 100.844 9.44886 100.844 8.77841C100.844 8.10795 100.966 7.51705 101.211 7.00568C101.458 6.49148 101.801 6.09091 102.242 5.80398C102.685 5.5142 103.202 5.36932 103.793 5.36932C104.134 5.36932 104.471 5.42614 104.803 5.53977C105.135 5.65341 105.438 5.83807 105.711 6.09375C105.983 6.34659 106.201 6.68182 106.363 7.09943C106.525 7.51705 106.605 8.03125 106.605 8.64205V9.06818H101.56V8.19886H105.583C105.583 7.82955 105.509 7.5 105.361 7.21023C105.216 6.92045 105.009 6.69176 104.739 6.52415C104.472 6.35653 104.157 6.27273 103.793 6.27273C103.392 6.27273 103.046 6.37216 102.753 6.57102C102.463 6.76705 102.24 7.02273 102.084 7.33807C101.928 7.65341 101.85 7.99148 101.85 8.35227V8.93182C101.85 9.42614 101.935 9.84517 102.105 10.1889C102.279 10.5298 102.519 10.7898 102.826 10.9688C103.132 11.1449 103.489 11.233 103.895 11.233C104.159 11.233 104.398 11.196 104.611 11.1222C104.827 11.0455 105.013 10.9318 105.169 10.7812C105.326 10.6278 105.446 10.4375 105.532 10.2102L106.503 10.483C106.401 10.8125 106.229 11.1023 105.988 11.3523C105.746 11.5994 105.448 11.7926 105.093 11.9318C104.738 12.0682 104.338 12.1364 103.895 12.1364ZM108.135 12V5.45455H109.107V6.44318H109.175C109.294 6.11932 109.51 5.85653 109.823 5.65483C110.135 5.45312 110.488 5.35227 110.88 5.35227C110.953 5.35227 111.046 5.35369 111.157 5.35653C111.267 5.35937 111.351 5.36364 111.408 5.36932V6.39205C111.374 6.38352 111.296 6.37074 111.174 6.35369C111.054 6.33381 110.928 6.32386 110.794 6.32386C110.476 6.32386 110.192 6.39062 109.942 6.52415C109.695 6.65483 109.499 6.83665 109.354 7.0696C109.212 7.29972 109.141 7.5625 109.141 7.85795V12H108.135ZM115.925 5.45455V6.30682H112.397V5.45455H115.925ZM113.453 12V4.55114C113.453 4.17614 113.542 3.86364 113.718 3.61364C113.894 3.36364 114.123 3.17614 114.404 3.05114C114.685 2.92614 114.982 2.86364 115.294 2.86364C115.542 2.86364 115.743 2.88352 115.9 2.9233C116.056 2.96307 116.172 3 116.249 3.03409L115.959 3.90341C115.908 3.88636 115.837 3.86506 115.746 3.83949C115.658 3.81392 115.542 3.80114 115.397 3.80114C115.064 3.80114 114.824 3.88494 114.676 4.05256C114.532 4.22017 114.459 4.46591 114.459 4.78977V12H113.453ZM119.724 12.1364C119.133 12.1364 118.615 11.9957 118.169 11.7145C117.725 11.4332 117.379 11.0398 117.129 10.5341C116.882 10.0284 116.758 9.4375 116.758 8.76136C116.758 8.07955 116.882 7.48437 117.129 6.97585C117.379 6.46733 117.725 6.07244 118.169 5.79119C118.615 5.50994 119.133 5.36932 119.724 5.36932C120.315 5.36932 120.832 5.50994 121.275 5.79119C121.721 6.07244 122.068 6.46733 122.315 6.97585C122.565 7.48437 122.69 8.07955 122.69 8.76136C122.69 9.4375 122.565 10.0284 122.315 10.5341C122.068 11.0398 121.721 11.4332 121.275 11.7145C120.832 11.9957 120.315 12.1364 119.724 12.1364ZM119.724 11.233C120.173 11.233 120.542 11.1179 120.832 10.8878C121.122 10.6577 121.336 10.3551 121.475 9.98011C121.615 9.60511 121.684 9.19886 121.684 8.76136C121.684 8.32386 121.615 7.91619 121.475 7.53835C121.336 7.16051 121.122 6.85511 120.832 6.62216C120.542 6.3892 120.173 6.27273 119.724 6.27273C119.275 6.27273 118.906 6.3892 118.616 6.62216C118.326 6.85511 118.112 7.16051 117.973 7.53835C117.833 7.91619 117.764 8.32386 117.764 8.76136C117.764 9.19886 117.833 9.60511 117.973 9.98011C118.112 10.3551 118.326 10.6577 118.616 10.8878C118.906 11.1179 119.275 11.233 119.724 11.233ZM124.225 12V5.45455H125.197V6.44318H125.265C125.384 6.11932 125.6 5.85653 125.913 5.65483C126.225 5.45312 126.577 5.35227 126.969 5.35227C127.043 5.35227 127.136 5.35369 127.246 5.35653C127.357 5.35937 127.441 5.36364 127.498 5.36932V6.39205C127.464 6.38352 127.386 6.37074 127.263 6.35369C127.144 6.33381 127.018 6.32386 126.884 6.32386C126.566 6.32386 126.282 6.39062 126.032 6.52415C125.785 6.65483 125.589 6.83665 125.444 7.0696C125.302 7.29972 125.231 7.5625 125.231 7.85795V12H124.225ZM130.616 12.1534C130.201 12.1534 129.825 12.0753 129.487 11.919C129.149 11.7599 128.88 11.5312 128.681 11.233C128.483 10.9318 128.383 10.5682 128.383 10.142C128.383 9.76705 128.457 9.46307 128.605 9.23011C128.752 8.99432 128.95 8.80966 129.197 8.67614C129.444 8.54261 129.717 8.44318 130.015 8.37784C130.316 8.30966 130.619 8.25568 130.923 8.21591C131.321 8.16477 131.643 8.12642 131.89 8.10085C132.14 8.07244 132.322 8.02557 132.436 7.96023C132.552 7.89489 132.61 7.78125 132.61 7.61932V7.58523C132.61 7.16477 132.495 6.83807 132.265 6.60511C132.038 6.37216 131.693 6.25568 131.23 6.25568C130.75 6.25568 130.373 6.3608 130.1 6.57102C129.828 6.78125 129.636 7.00568 129.525 7.24432L128.571 6.90341C128.741 6.50568 128.968 6.19602 129.252 5.97443C129.539 5.75 129.852 5.59375 130.19 5.50568C130.531 5.41477 130.866 5.36932 131.196 5.36932C131.406 5.36932 131.647 5.39489 131.92 5.44602C132.196 5.49432 132.461 5.59517 132.717 5.74858C132.975 5.90199 133.19 6.13352 133.36 6.44318C133.531 6.75284 133.616 7.16761 133.616 7.6875V12H132.61V11.1136H132.559C132.491 11.2557 132.377 11.4077 132.218 11.5696C132.059 11.7315 131.848 11.8693 131.583 11.983C131.319 12.0966 130.997 12.1534 130.616 12.1534ZM130.77 11.25C131.167 11.25 131.502 11.1719 131.775 11.0156C132.051 10.8594 132.258 10.6577 132.397 10.4105C132.539 10.1634 132.61 9.90341 132.61 9.63068V8.71023C132.568 8.76136 132.474 8.80824 132.329 8.85085C132.187 8.89062 132.022 8.92614 131.835 8.95739C131.65 8.9858 131.47 9.01136 131.294 9.03409C131.12 9.05398 130.98 9.07102 130.872 9.08523C130.61 9.11932 130.366 9.17472 130.139 9.25142C129.914 9.32528 129.733 9.4375 129.593 9.58807C129.457 9.7358 129.389 9.9375 129.389 10.1932C129.389 10.5426 129.518 10.8068 129.777 10.9858C130.038 11.1619 130.369 11.25 130.77 11.25ZM138.298 5.45455V6.30682H134.906V5.45455H138.298ZM135.895 3.88636H136.901V10.125C136.901 10.4091 136.942 10.6222 137.024 10.7642C137.109 10.9034 137.217 10.9972 137.348 11.0455C137.482 11.0909 137.622 11.1136 137.77 11.1136C137.881 11.1136 137.972 11.108 138.043 11.0966C138.114 11.0824 138.17 11.071 138.213 11.0625L138.418 11.9659C138.349 11.9915 138.254 12.017 138.132 12.0426C138.01 12.071 137.855 12.0852 137.668 12.0852C137.384 12.0852 137.105 12.0241 136.832 11.902C136.563 11.7798 136.338 11.5938 136.159 11.3438C135.983 11.0938 135.895 10.7784 135.895 10.3977V3.88636ZM139.811 12V5.45455H140.817V12H139.811ZM140.322 4.36364C140.126 4.36364 139.957 4.29688 139.815 4.16335C139.676 4.02983 139.607 3.86932 139.607 3.68182C139.607 3.49432 139.676 3.33381 139.815 3.20028C139.957 3.06676 140.126 3 140.322 3C140.518 3 140.686 3.06676 140.825 3.20028C140.967 3.33381 141.038 3.49432 141.038 3.68182C141.038 3.86932 140.967 4.02983 140.825 4.16335C140.686 4.29688 140.518 4.36364 140.322 4.36364ZM145.318 12.1364C144.727 12.1364 144.208 11.9957 143.762 11.7145C143.319 11.4332 142.973 11.0398 142.723 10.5341C142.475 10.0284 142.352 9.4375 142.352 8.76136C142.352 8.07955 142.475 7.48437 142.723 6.97585C142.973 6.46733 143.319 6.07244 143.762 5.79119C144.208 5.50994 144.727 5.36932 145.318 5.36932C145.909 5.36932 146.426 5.50994 146.869 5.79119C147.315 6.07244 147.662 6.46733 147.909 6.97585C148.159 7.48437 148.284 8.07955 148.284 8.76136C148.284 9.4375 148.159 10.0284 147.909 10.5341C147.662 11.0398 147.315 11.4332 146.869 11.7145C146.426 11.9957 145.909 12.1364 145.318 12.1364ZM145.318 11.233C145.767 11.233 146.136 11.1179 146.426 10.8878C146.716 10.6577 146.93 10.3551 147.069 9.98011C147.208 9.60511 147.278 9.19886 147.278 8.76136C147.278 8.32386 147.208 7.91619 147.069 7.53835C146.93 7.16051 146.716 6.85511 146.426 6.62216C146.136 6.3892 145.767 6.27273 145.318 6.27273C144.869 6.27273 144.5 6.3892 144.21 6.62216C143.92 6.85511 143.706 7.16051 143.566 7.53835C143.427 7.91619 143.358 8.32386 143.358 8.76136C143.358 9.19886 143.427 9.60511 143.566 9.98011C143.706 10.3551 143.92 10.6577 144.21 10.8878C144.5 11.1179 144.869 11.233 145.318 11.233ZM150.825 8.0625V12H149.819V5.45455H150.79V6.47727H150.876C151.029 6.14489 151.262 5.87784 151.575 5.67614C151.887 5.47159 152.29 5.36932 152.785 5.36932C153.228 5.36932 153.616 5.46023 153.948 5.64205C154.281 5.82102 154.539 6.09375 154.724 6.46023C154.908 6.82386 155.001 7.28409 155.001 7.84091V12H153.995V7.90909C153.995 7.39489 153.862 6.99432 153.594 6.70739C153.327 6.41761 152.961 6.27273 152.495 6.27273C152.174 6.27273 151.887 6.34233 151.634 6.48153C151.384 6.62074 151.187 6.82386 151.042 7.09091C150.897 7.35795 150.825 7.68182 150.825 8.0625Z" fill="black"/>
</svg>
