<svg width="300" height="81" viewBox="0 0 300 81" fill="none" xmlns="http://www.w3.org/2000/svg">
<rect y="54" width="300" height="27" fill="#2A9DA5"/>
<rect y="27" width="300" height="27" fill="#7A7A7A"/>
<rect width="300" height="27" fill="#BAFBFF"/>
<path d="M252.415 20H251.307L254.511 11.2727H255.602L258.807 20H257.699L255.091 12.6534H255.023L252.415 20ZM252.824 16.5909H257.29V17.5284H252.824V16.5909ZM260.1 20V13.4545H261.106V20H260.1ZM260.612 12.3636C260.415 12.3636 260.246 12.2969 260.104 12.1634C259.965 12.0298 259.896 11.8693 259.896 11.6818C259.896 11.4943 259.965 11.3338 260.104 11.2003C260.246 11.0668 260.415 11 260.612 11C260.808 11 260.975 11.0668 261.114 11.2003C261.256 11.3338 261.327 11.4943 261.327 11.6818C261.327 11.8693 261.256 12.0298 261.114 12.1634C260.975 12.2969 260.808 12.3636 260.612 12.3636ZM262.948 20V13.4545H263.919V14.4432H263.988C264.107 14.1193 264.323 13.8565 264.635 13.6548C264.948 13.4531 265.3 13.3523 265.692 13.3523C265.766 13.3523 265.858 13.3537 265.969 13.3565C266.08 13.3594 266.164 13.3636 266.221 13.3693V14.392C266.186 14.3835 266.108 14.3707 265.986 14.3537C265.867 14.3338 265.74 14.3239 265.607 14.3239C265.289 14.3239 265.005 14.3906 264.755 14.5241C264.507 14.6548 264.311 14.8366 264.167 15.0696C264.025 15.2997 263.953 15.5625 263.953 15.858V20H262.948Z" fill="black"/>
<path d="M257.83 40.4545C257.778 40.0227 257.571 39.6875 257.207 39.4489C256.844 39.2102 256.398 39.0909 255.869 39.0909C255.483 39.0909 255.145 39.1534 254.855 39.2784C254.568 39.4034 254.344 39.5753 254.182 39.794C254.023 40.0128 253.943 40.2614 253.943 40.5398C253.943 40.7727 253.999 40.973 254.109 41.1406C254.223 41.3054 254.368 41.4432 254.544 41.554C254.72 41.6619 254.905 41.7514 255.098 41.8224C255.291 41.8906 255.469 41.946 255.631 41.9886L256.517 42.2273C256.744 42.2869 256.997 42.3693 257.276 42.4744C257.557 42.5795 257.825 42.723 258.081 42.9048C258.339 43.0838 258.553 43.3139 258.72 43.5952C258.888 43.8764 258.972 44.2216 258.972 44.6307C258.972 45.1023 258.848 45.5284 258.601 45.9091C258.357 46.2898 257.999 46.5923 257.527 46.8168C257.058 47.0412 256.489 47.1534 255.818 47.1534C255.193 47.1534 254.652 47.0526 254.195 46.8509C253.74 46.6491 253.382 46.3679 253.121 46.0071C252.862 45.6463 252.716 45.2273 252.682 44.75H253.773C253.801 45.0795 253.912 45.3523 254.105 45.5682C254.301 45.7812 254.548 45.9403 254.847 46.0455C255.148 46.1477 255.472 46.1989 255.818 46.1989C256.222 46.1989 256.584 46.1335 256.905 46.0028C257.226 45.8693 257.48 45.6847 257.668 45.4489C257.855 45.2102 257.949 44.9318 257.949 44.6136C257.949 44.3239 257.868 44.0881 257.706 43.9062C257.544 43.7244 257.331 43.5767 257.067 43.4631C256.803 43.3494 256.517 43.25 256.21 43.1648L255.136 42.858C254.455 42.6619 253.915 42.3821 253.517 42.0185C253.119 41.6548 252.92 41.179 252.92 40.5909C252.92 40.1023 253.053 39.6761 253.317 39.3125C253.584 38.946 253.942 38.6619 254.391 38.4602C254.842 38.2557 255.347 38.1534 255.903 38.1534C256.466 38.1534 256.966 38.2543 257.403 38.456C257.841 38.6548 258.188 38.9276 258.443 39.2741C258.702 39.6207 258.838 40.0142 258.852 40.4545H257.83ZM260.573 47V40.4545H261.578V47H260.573ZM261.084 39.3636C260.888 39.3636 260.719 39.2969 260.577 39.1634C260.438 39.0298 260.368 38.8693 260.368 38.6818C260.368 38.4943 260.438 38.3338 260.577 38.2003C260.719 38.0668 260.888 38 261.084 38C261.28 38 261.448 38.0668 261.587 38.2003C261.729 38.3338 261.8 38.4943 261.8 38.6818C261.8 38.8693 261.729 39.0298 261.587 39.1634C261.448 39.2969 261.28 39.3636 261.084 39.3636ZM264.426 38.2727V47H263.42V38.2727H264.426ZM271.62 40.4545L269.2 47H268.177L265.757 40.4545H266.848L268.654 45.6705H268.723L270.529 40.4545H271.62ZM275.458 47.1364C274.827 47.1364 274.283 46.9972 273.826 46.7188C273.371 46.4375 273.02 46.0455 272.773 45.5426C272.529 45.0369 272.407 44.4489 272.407 43.7784C272.407 43.108 272.529 42.517 272.773 42.0057C273.02 41.4915 273.364 41.0909 273.804 40.804C274.248 40.5142 274.765 40.3693 275.355 40.3693C275.696 40.3693 276.033 40.4261 276.365 40.5398C276.698 40.6534 277 40.8381 277.273 41.0938C277.546 41.3466 277.763 41.6818 277.925 42.0994C278.087 42.517 278.168 43.0312 278.168 43.642V44.0682H273.123V43.1989H277.145C277.145 42.8295 277.071 42.5 276.924 42.2102C276.779 41.9205 276.571 41.6918 276.301 41.5241C276.034 41.3565 275.719 41.2727 275.355 41.2727C274.955 41.2727 274.608 41.3722 274.316 41.571C274.026 41.767 273.803 42.0227 273.647 42.3381C273.49 42.6534 273.412 42.9915 273.412 43.3523V43.9318C273.412 44.4261 273.498 44.8452 273.668 45.1889C273.841 45.5298 274.081 45.7898 274.388 45.9688C274.695 46.1449 275.051 46.233 275.458 46.233C275.722 46.233 275.961 46.196 276.174 46.1222C276.39 46.0455 276.576 45.9318 276.732 45.7812C276.888 45.6278 277.009 45.4375 277.094 45.2102L278.066 45.483C277.963 45.8125 277.792 46.1023 277.55 46.3523C277.309 46.5994 277.01 46.7926 276.655 46.9318C276.3 47.0682 275.901 47.1364 275.458 47.1364ZM279.698 47V40.4545H280.669V41.4432H280.738C280.857 41.1193 281.073 40.8565 281.385 40.6548C281.698 40.4531 282.05 40.3523 282.442 40.3523C282.516 40.3523 282.608 40.3537 282.719 40.3565C282.83 40.3594 282.914 40.3636 282.971 40.3693V41.392C282.936 41.3835 282.858 41.3707 282.736 41.3537C282.617 41.3338 282.49 41.3239 282.357 41.3239C282.039 41.3239 281.755 41.3906 281.505 41.5241C281.257 41.6548 281.061 41.8366 280.917 42.0696C280.775 42.2997 280.703 42.5625 280.703 42.858V47H279.698Z" fill="black"/>
<path d="M256.227 71.2727H257.386L258.358 72.5511L258.614 72.892L260.062 74.8182H258.903L257.949 73.5398L257.71 73.2159L256.227 71.2727ZM260.42 69.6364C260.42 70.5568 260.254 71.3523 259.922 72.0227C259.589 72.6932 259.134 73.2102 258.554 73.5739C257.974 73.9375 257.313 74.1193 256.568 74.1193C255.824 74.1193 255.162 73.9375 254.582 73.5739C254.003 73.2102 253.547 72.6932 253.214 72.0227C252.882 71.3523 252.716 70.5568 252.716 69.6364C252.716 68.7159 252.882 67.9205 253.214 67.25C253.547 66.5795 254.003 66.0625 254.582 65.6989C255.162 65.3352 255.824 65.1534 256.568 65.1534C257.313 65.1534 257.974 65.3352 258.554 65.6989C259.134 66.0625 259.589 66.5795 259.922 67.25C260.254 67.9205 260.42 68.7159 260.42 69.6364ZM259.398 69.6364C259.398 68.8807 259.271 68.2429 259.018 67.723C258.768 67.2031 258.429 66.8097 258 66.5426C257.574 66.2756 257.097 66.142 256.568 66.142C256.04 66.142 255.561 66.2756 255.132 66.5426C254.706 66.8097 254.366 67.2031 254.114 67.723C253.864 68.2429 253.739 68.8807 253.739 69.6364C253.739 70.392 253.864 71.0298 254.114 71.5497C254.366 72.0696 254.706 72.4631 255.132 72.7301C255.561 72.9972 256.04 73.1307 256.568 73.1307C257.097 73.1307 257.574 72.9972 258 72.7301C258.429 72.4631 258.768 72.0696 259.018 71.5497C259.271 71.0298 259.398 70.392 259.398 69.6364ZM266.186 71.3239V67.4545H267.192V74H266.186V72.892H266.118C265.964 73.2244 265.726 73.5071 265.402 73.7401C265.078 73.9702 264.669 74.0852 264.175 74.0852C263.766 74.0852 263.402 73.9957 263.084 73.8168C262.766 73.6349 262.516 73.3622 262.334 72.9986C262.152 72.6321 262.061 72.1705 262.061 71.6136V67.4545H263.067V71.5455C263.067 72.0227 263.2 72.4034 263.467 72.6875C263.737 72.9716 264.081 73.1136 264.499 73.1136C264.749 73.1136 265.003 73.0497 265.261 72.9219C265.523 72.794 265.741 72.598 265.918 72.3338C266.097 72.0696 266.186 71.733 266.186 71.3239ZM270.96 74.1534C270.545 74.1534 270.169 74.0753 269.831 73.919C269.493 73.7599 269.224 73.5312 269.025 73.233C268.826 72.9318 268.727 72.5682 268.727 72.142C268.727 71.767 268.801 71.4631 268.949 71.2301C269.096 70.9943 269.294 70.8097 269.541 70.6761C269.788 70.5426 270.061 70.4432 270.359 70.3778C270.66 70.3097 270.963 70.2557 271.267 70.2159C271.664 70.1648 271.987 70.1264 272.234 70.1009C272.484 70.0724 272.666 70.0256 272.779 69.9602C272.896 69.8949 272.954 69.7812 272.954 69.6193V69.5852C272.954 69.1648 272.839 68.8381 272.609 68.6051C272.382 68.3722 272.037 68.2557 271.574 68.2557C271.093 68.2557 270.717 68.3608 270.444 68.571C270.172 68.7812 269.98 69.0057 269.869 69.2443L268.914 68.9034C269.085 68.5057 269.312 68.196 269.596 67.9744C269.883 67.75 270.196 67.5937 270.534 67.5057C270.875 67.4148 271.21 67.3693 271.539 67.3693C271.75 67.3693 271.991 67.3949 272.264 67.446C272.539 67.4943 272.805 67.5952 273.061 67.7486C273.319 67.902 273.534 68.1335 273.704 68.4432C273.875 68.7528 273.96 69.1676 273.96 69.6875V74H272.954V73.1136H272.903C272.835 73.2557 272.721 73.4077 272.562 73.5696C272.403 73.7315 272.191 73.8693 271.927 73.983C271.663 74.0966 271.341 74.1534 270.96 74.1534ZM271.113 73.25C271.511 73.25 271.846 73.1719 272.119 73.0156C272.395 72.8594 272.602 72.6577 272.741 72.4105C272.883 72.1634 272.954 71.9034 272.954 71.6307V70.7102C272.912 70.7614 272.818 70.8082 272.673 70.8509C272.531 70.8906 272.366 70.9261 272.179 70.9574C271.994 70.9858 271.814 71.0114 271.637 71.0341C271.464 71.054 271.324 71.071 271.216 71.0852C270.954 71.1193 270.71 71.1747 270.483 71.2514C270.258 71.3253 270.076 71.4375 269.937 71.5881C269.801 71.7358 269.733 71.9375 269.733 72.1932C269.733 72.5426 269.862 72.8068 270.12 72.9858C270.382 73.1619 270.713 73.25 271.113 73.25ZM275.795 74V67.4545H276.767V68.4432H276.835C276.955 68.1193 277.17 67.8565 277.483 67.6548C277.795 67.4531 278.148 67.3523 278.54 67.3523C278.614 67.3523 278.706 67.3537 278.817 67.3565C278.928 67.3594 279.011 67.3636 279.068 67.3693V68.392C279.034 68.3835 278.956 68.3707 278.834 68.3537C278.714 68.3338 278.588 68.3239 278.455 68.3239C278.136 68.3239 277.852 68.3906 277.602 68.5241C277.355 68.6548 277.159 68.8366 277.014 69.0696C276.872 69.2997 276.801 69.5625 276.801 69.858V74H275.795ZM283.517 67.4545V68.3068H280.125V67.4545H283.517ZM281.114 65.8864H282.119V72.125C282.119 72.4091 282.161 72.6222 282.243 72.7642C282.328 72.9034 282.436 72.9972 282.567 73.0455C282.7 73.0909 282.841 73.1136 282.989 73.1136C283.099 73.1136 283.19 73.108 283.261 73.0966C283.332 73.0824 283.389 73.071 283.432 73.0625L283.636 73.9659C283.568 73.9915 283.473 74.017 283.351 74.0426C283.229 74.071 283.074 74.0852 282.886 74.0852C282.602 74.0852 282.324 74.0241 282.051 73.902C281.781 73.7798 281.557 73.5938 281.378 73.3438C281.202 73.0938 281.114 72.7784 281.114 72.3977V65.8864ZM284.842 74V73.233L288.558 68.4602V68.392H284.962V67.4545H289.854V68.2557L286.24 72.9943V73.0625H289.973V74H284.842Z" fill="black"/>
<path d="M88 27L90.8868 22H85.1132L88 27ZM87.5 0V22.5H88.5V0H87.5Z" fill="black"/>
<path d="M117 0L114.113 5H119.887L117 0ZM117.5 27V4.5H116.5V27H117.5Z" fill="black"/>
<path d="M102 81L104.887 76H99.1132L102 81ZM101.5 54V76.5H102.5V54H101.5Z" fill="black"/>
<path d="M128.057 20V11.2727H131.006C131.688 11.2727 132.247 11.3892 132.685 11.6222C133.122 11.8523 133.446 12.169 133.656 12.5724C133.866 12.9759 133.972 13.4347 133.972 13.9489C133.972 14.4631 133.866 14.919 133.656 15.3168C133.446 15.7145 133.124 16.027 132.689 16.2543C132.254 16.4787 131.699 16.5909 131.023 16.5909H128.636V15.6364H130.989C131.455 15.6364 131.83 15.5682 132.114 15.4318C132.401 15.2955 132.608 15.1023 132.736 14.8523C132.866 14.5994 132.932 14.2983 132.932 13.9489C132.932 13.5994 132.866 13.294 132.736 13.0327C132.605 12.7713 132.396 12.5696 132.109 12.4276C131.822 12.2827 131.443 12.2102 130.972 12.2102H129.114V20H128.057ZM132.165 16.0795L134.312 20H133.085L130.972 16.0795H132.165ZM138.27 20.1364C137.64 20.1364 137.096 19.9972 136.638 19.7188C136.184 19.4375 135.833 19.0455 135.586 18.5426C135.341 18.0369 135.219 17.4489 135.219 16.7784C135.219 16.108 135.341 15.517 135.586 15.0057C135.833 14.4915 136.176 14.0909 136.617 13.804C137.06 13.5142 137.577 13.3693 138.168 13.3693C138.509 13.3693 138.846 13.4261 139.178 13.5398C139.51 13.6534 139.813 13.8381 140.086 14.0938C140.358 14.3466 140.576 14.6818 140.738 15.0994C140.9 15.517 140.98 16.0312 140.98 16.642V17.0682H135.935V16.1989H139.958C139.958 15.8295 139.884 15.5 139.736 15.2102C139.591 14.9205 139.384 14.6918 139.114 14.5241C138.847 14.3565 138.532 14.2727 138.168 14.2727C137.767 14.2727 137.421 14.3722 137.128 14.571C136.838 14.767 136.615 15.0227 136.459 15.3381C136.303 15.6534 136.225 15.9915 136.225 16.3523V16.9318C136.225 17.4261 136.31 17.8452 136.48 18.1889C136.654 18.5298 136.894 18.7898 137.201 18.9688C137.507 19.1449 137.864 19.233 138.27 19.233C138.534 19.233 138.773 19.196 138.986 19.1222C139.202 19.0455 139.388 18.9318 139.544 18.7812C139.701 18.6278 139.821 18.4375 139.907 18.2102L140.878 18.483C140.776 18.8125 140.604 19.1023 140.363 19.3523C140.121 19.5994 139.823 19.7926 139.468 19.9318C139.113 20.0682 138.713 20.1364 138.27 20.1364ZM145.425 13.4545V14.3068H141.897V13.4545H145.425ZM142.953 20V12.5511C142.953 12.1761 143.042 11.8636 143.218 11.6136C143.394 11.3636 143.623 11.1761 143.904 11.0511C144.185 10.9261 144.482 10.8636 144.794 10.8636C145.042 10.8636 145.243 10.8835 145.4 10.9233C145.556 10.9631 145.672 11 145.749 11.0341L145.459 11.9034C145.408 11.8864 145.337 11.8651 145.246 11.8395C145.158 11.8139 145.042 11.8011 144.897 11.8011C144.564 11.8011 144.324 11.8849 144.176 12.0526C144.032 12.2202 143.959 12.4659 143.959 12.7898V20H142.953ZM146.888 20.0682C146.678 20.0682 146.497 19.9929 146.347 19.8423C146.196 19.6918 146.121 19.5114 146.121 19.3011C146.121 19.0909 146.196 18.9105 146.347 18.7599C146.497 18.6094 146.678 18.5341 146.888 18.5341C147.098 18.5341 147.278 18.6094 147.429 18.7599C147.58 18.9105 147.655 19.0909 147.655 19.3011C147.655 19.4403 147.619 19.5682 147.548 19.6847C147.48 19.8011 147.388 19.8949 147.271 19.9659C147.158 20.0341 147.03 20.0682 146.888 20.0682Z" fill="black"/>
<path d="M112.58 66.2102V65.2727H119.125V66.2102H116.381V74H115.324V66.2102H112.58ZM119.94 74V67.4545H120.912V68.4432H120.98C121.099 68.1193 121.315 67.8565 121.627 67.6548C121.94 67.4531 122.292 67.3523 122.684 67.3523C122.758 67.3523 122.85 67.3537 122.961 67.3565C123.072 67.3594 123.156 67.3636 123.213 67.3693V68.392C123.179 68.3835 123.1 68.3707 122.978 68.3537C122.859 68.3338 122.733 68.3239 122.599 68.3239C122.281 68.3239 121.997 68.3906 121.747 68.5241C121.5 68.6548 121.304 68.8366 121.159 69.0696C121.017 69.2997 120.946 69.5625 120.946 69.858V74H119.94ZM126.331 74.1534C125.916 74.1534 125.54 74.0753 125.202 73.919C124.864 73.7599 124.595 73.5312 124.396 73.233C124.197 72.9318 124.098 72.5682 124.098 72.142C124.098 71.767 124.172 71.4631 124.32 71.2301C124.467 70.9943 124.665 70.8097 124.912 70.6761C125.159 70.5426 125.432 70.4432 125.73 70.3778C126.031 70.3097 126.334 70.2557 126.638 70.2159C127.036 70.1648 127.358 70.1264 127.605 70.1009C127.855 70.0724 128.037 70.0256 128.151 69.9602C128.267 69.8949 128.325 69.7812 128.325 69.6193V69.5852C128.325 69.1648 128.21 68.8381 127.98 68.6051C127.753 68.3722 127.408 68.2557 126.945 68.2557C126.464 68.2557 126.088 68.3608 125.815 68.571C125.543 68.7812 125.351 69.0057 125.24 69.2443L124.286 68.9034C124.456 68.5057 124.683 68.196 124.967 67.9744C125.254 67.75 125.567 67.5937 125.905 67.5057C126.246 67.4148 126.581 67.3693 126.911 67.3693C127.121 67.3693 127.362 67.3949 127.635 67.446C127.911 67.4943 128.176 67.5952 128.432 67.7486C128.69 67.902 128.905 68.1335 129.075 68.4432C129.246 68.7528 129.331 69.1676 129.331 69.6875V74H128.325V73.1136H128.274C128.206 73.2557 128.092 73.4077 127.933 73.5696C127.774 73.7315 127.563 73.8693 127.298 73.983C127.034 74.0966 126.712 74.1534 126.331 74.1534ZM126.484 73.25C126.882 73.25 127.217 73.1719 127.49 73.0156C127.766 72.8594 127.973 72.6577 128.112 72.4105C128.254 72.1634 128.325 71.9034 128.325 71.6307V70.7102C128.283 70.7614 128.189 70.8082 128.044 70.8509C127.902 70.8906 127.737 70.9261 127.55 70.9574C127.365 70.9858 127.185 71.0114 127.009 71.0341C126.835 71.054 126.695 71.071 126.587 71.0852C126.325 71.1193 126.081 71.1747 125.854 71.2514C125.629 71.3253 125.447 71.4375 125.308 71.5881C125.172 71.7358 125.104 71.9375 125.104 72.1932C125.104 72.5426 125.233 72.8068 125.491 72.9858C125.753 73.1619 126.084 73.25 126.484 73.25ZM132.172 70.0625V74H131.167V67.4545H132.138V68.4773H132.223C132.377 68.1449 132.61 67.8778 132.922 67.6761C133.235 67.4716 133.638 67.3693 134.132 67.3693C134.576 67.3693 134.963 67.4602 135.296 67.642C135.628 67.821 135.887 68.0938 136.071 68.4602C136.256 68.8239 136.348 69.2841 136.348 69.8409V74H135.343V69.9091C135.343 69.3949 135.209 68.9943 134.942 68.7074C134.675 68.4176 134.309 68.2727 133.843 68.2727C133.522 68.2727 133.235 68.3423 132.982 68.4815C132.732 68.6207 132.534 68.8239 132.39 69.0909C132.245 69.358 132.172 69.6818 132.172 70.0625ZM142.822 68.9205L141.919 69.1761C141.862 69.0256 141.778 68.8793 141.668 68.7372C141.56 68.5923 141.412 68.473 141.224 68.3793C141.037 68.2855 140.797 68.2386 140.504 68.2386C140.104 68.2386 139.77 68.331 139.503 68.5156C139.239 68.6974 139.107 68.929 139.107 69.2102C139.107 69.4602 139.197 69.6577 139.379 69.8026C139.561 69.9474 139.845 70.0682 140.232 70.1648L141.203 70.4034C141.788 70.5455 142.224 70.7628 142.511 71.0554C142.798 71.3452 142.942 71.7187 142.942 72.1761C142.942 72.5511 142.834 72.8864 142.618 73.1818C142.405 73.4773 142.107 73.7102 141.723 73.8807C141.339 74.0511 140.893 74.1364 140.385 74.1364C139.717 74.1364 139.165 73.9915 138.727 73.7017C138.29 73.4119 138.013 72.9886 137.896 72.4318L138.851 72.1932C138.942 72.5455 139.114 72.8097 139.366 72.9858C139.622 73.1619 139.956 73.25 140.368 73.25C140.837 73.25 141.209 73.1506 141.484 72.9517C141.763 72.75 141.902 72.5085 141.902 72.2273C141.902 72 141.822 71.8097 141.663 71.6562C141.504 71.5 141.26 71.3835 140.93 71.3068L139.839 71.0511C139.24 70.9091 138.8 70.6889 138.518 70.3906C138.24 70.0895 138.101 69.7131 138.101 69.2614C138.101 68.892 138.205 68.5653 138.412 68.2812C138.622 67.9972 138.908 67.7741 139.268 67.6122C139.632 67.4503 140.044 67.3693 140.504 67.3693C141.152 67.3693 141.661 67.5114 142.03 67.7955C142.402 68.0795 142.666 68.4545 142.822 68.9205ZM145.189 74.0682C144.978 74.0682 144.798 73.9929 144.647 73.8423C144.497 73.6918 144.422 73.5114 144.422 73.3011C144.422 73.0909 144.497 72.9105 144.647 72.7599C144.798 72.6094 144.978 72.5341 145.189 72.5341C145.399 72.5341 145.579 72.6094 145.73 72.7599C145.88 72.9105 145.956 73.0909 145.956 73.3011C145.956 73.4403 145.92 73.5682 145.849 73.6847C145.781 73.8011 145.689 73.8949 145.572 73.9659C145.458 74.0341 145.331 74.0682 145.189 74.0682Z" fill="black"/>
<path d="M50.1136 11.2727V20H49.0568V11.2727H50.1136ZM53.1019 16.0625V20H52.0962V13.4545H53.0678V14.4773H53.1531C53.3065 14.1449 53.5394 13.8778 53.8519 13.6761C54.1644 13.4716 54.5678 13.3693 55.0621 13.3693C55.5053 13.3693 55.8931 13.4602 56.2255 13.642C56.5579 13.821 56.8164 14.0938 57.0011 14.4602C57.1857 14.8239 57.2781 15.2841 57.2781 15.8409V20H56.2724V15.9091C56.2724 15.3949 56.1388 14.9943 55.8718 14.7074C55.6048 14.4176 55.2383 14.2727 54.7724 14.2727C54.4513 14.2727 54.1644 14.3423 53.9116 14.4815C53.6616 14.6207 53.4641 14.8239 53.3192 15.0909C53.1744 15.358 53.1019 15.6818 53.1019 16.0625ZM61.7749 20.1364C61.1612 20.1364 60.6328 19.9915 60.1896 19.7017C59.7464 19.4119 59.4055 19.0128 59.1669 18.5043C58.9283 17.9957 58.8089 17.4148 58.8089 16.7614C58.8089 16.0966 58.9311 15.5099 59.1754 15.0014C59.4226 14.4901 59.7663 14.0909 60.2067 13.804C60.6499 13.5142 61.1669 13.3693 61.7578 13.3693C62.218 13.3693 62.6328 13.4545 63.0021 13.625C63.3714 13.7955 63.674 14.0341 63.9098 14.3409C64.1456 14.6477 64.2919 15.0057 64.3487 15.4148H63.343C63.2663 15.1165 63.0959 14.8523 62.8317 14.6222C62.5703 14.3892 62.218 14.2727 61.7749 14.2727C61.3828 14.2727 61.0391 14.375 60.7436 14.5795C60.451 14.7812 60.2223 15.0668 60.0575 15.4361C59.8956 15.8026 59.8146 16.233 59.8146 16.7273C59.8146 17.233 59.8942 17.6733 60.0533 18.0483C60.2152 18.4233 60.4425 18.7145 60.7351 18.9219C61.0305 19.1293 61.3771 19.233 61.7749 19.233C62.0362 19.233 62.2734 19.1875 62.4865 19.0966C62.6996 19.0057 62.88 18.875 63.0277 18.7045C63.1754 18.5341 63.2805 18.3295 63.343 18.0909H64.3487C64.2919 18.4773 64.1513 18.8253 63.9268 19.1349C63.7053 19.4418 63.4112 19.6861 63.0447 19.8679C62.6811 20.0469 62.2578 20.1364 61.7749 20.1364ZM66.5518 20.0682C66.3416 20.0682 66.1612 19.9929 66.0107 19.8423C65.8601 19.6918 65.7848 19.5114 65.7848 19.3011C65.7848 19.0909 65.8601 18.9105 66.0107 18.7599C66.1612 18.6094 66.3416 18.5341 66.5518 18.5341C66.7621 18.5341 66.9425 18.6094 67.093 18.7599C67.2436 18.9105 67.3189 19.0909 67.3189 19.3011C67.3189 19.4403 67.2834 19.5682 67.2124 19.6847C67.1442 19.8011 67.0518 19.8949 66.9354 19.9659C66.8217 20.0341 66.6939 20.0682 66.5518 20.0682Z" fill="black"/>
</svg>
